# xmcd CD database file
#
# Track frame offsets:
#	150
#	17525
#	38715
#	63872
#	74936
#	78447
#	94607
#	119190
#	136525
#	156570
#	172017
#	175208
#
# Disc length: 2516 seconds
#
# Revision: 0
# Processed by: cddbd v1.5.1PL0 Copyright (c) Steve Scherf et al.
# Submitted via: CDex 1.50beta10
#
DISCID=a409d20c
DTITLE=Gillespi - SuperChatarraEspéshal
DYEAR=1900
DGENRE=Jazz
TTITLE0=Neón
TTITLE1=Inbetweenies
TTITLE2=Un buen baño de crema
TTITLE3=Silencio
TTITLE4=Envolvente
TTITLE5=El amor total
TTITLE6=Extrabrut
TTITLE7=48
TTITLE8=On the night
TTITLE9=Mariana
TTITLE10=Solo Paul
TTITLE11=Yerba
EXTD=
EXTT0=
EXTT1=
EXTT2=
EXTT3=
EXTT4=
EXTT5=
EXTT6=
EXTT7=
EXTT8=
EXTT9=
EXTT10=
EXTT11=
PLAYORDER=
